<svg width="7" height="8" viewBox="0 0 7 8" fill="none" xmlns="http://www.w3.org/2000/svg">
<path d="M2.72222 6.4V5.6H1.94444V4.8H2.72222V4H3.5V4.8H4.27778V5.6H3.5V6.4H2.72222Z" fill="#777474"/>
<path fill-rule="evenodd" clip-rule="evenodd" d="M1.16667 0C0.522335 0 0 0.537258 0 1.2V6.8C0 7.46274 0.522335 8 1.16667 8H5.83333C6.47767 8 7 7.46274 7 6.8V2.8C7 1.2536 5.78122 0 4.27778 0H1.16667ZM1.16667 0.8H3.88889V2.8H6.22222V6.8C6.22222 7.02091 6.04811 7.2 5.83333 7.2H1.16667C0.951889 7.2 0.777778 7.02091 0.777778 6.8V1.2C0.777778 0.979086 0.951889 0.8 1.16667 0.8ZM4.66667 0.840007C5.29329 0.97084 5.81049 1.41162 6.06043 2H4.66667V0.840007Z" fill="#777474"/>
</svg>
