<svg width="9" height="9" viewBox="0 0 9 9" fill="none" xmlns="http://www.w3.org/2000/svg">
<path d="M4.05 4.04072C4.05 3.79219 4.25147 3.59072 4.5 3.59072C4.74853 3.59072 4.95 3.79219 4.95 4.04072V6.74072C4.95 6.98924 4.74853 7.19072 4.5 7.19072C4.25147 7.19072 4.05 6.98924 4.05 6.74072V4.04072Z" fill="#777474"/>
<path d="M4.5 1.82302C4.25147 1.82302 4.05 2.02449 4.05 2.27302C4.05 2.52154 4.25147 2.72302 4.5 2.72302C4.74853 2.72302 4.95 2.52154 4.95 2.27302C4.95 2.02449 4.74853 1.82302 4.5 1.82302Z" fill="#777474"/>
<path fill-rule="evenodd" clip-rule="evenodd" d="M4.5 0C2.01472 0 0 2.01472 0 4.5C0 6.98528 2.01472 9 4.5 9C6.98528 9 9 6.98528 9 4.5C9 2.01472 6.98528 0 4.5 0ZM0.9 4.5C0.9 6.48822 2.51178 8.1 4.5 8.1C6.48822 8.1 8.1 6.48822 8.1 4.5C8.1 2.51178 6.48822 0.9 4.5 0.9C2.51178 0.9 0.9 2.51178 0.9 4.5Z" fill="#777474"/>
</svg>
