<svg width="10" height="8" viewBox="0 0 10 8" fill="none" xmlns="http://www.w3.org/2000/svg">
<path fill-rule="evenodd" clip-rule="evenodd" d="M0.00542535 0.558495C0.00542535 0.250047 0.254156 0 0.560981 0H9.44444C9.75127 0 10 0.250047 10 0.558495V6.88301C10 7.49991 9.50254 8 8.88889 8H1.11111C0.497461 8 0 7.49991 0 6.88301V0.739569C0 0.712974 0.0018492 0.686813 0.00542535 0.661208V0.558495ZM1.11111 1.80045V6.88301H8.88889V1.80064L6.17861 4.52526C5.52773 5.17958 4.47246 5.17958 3.82158 4.52526L1.11111 1.80045ZM1.98462 1.09892H8.01557L5.39293 3.73543C5.17597 3.95354 4.82422 3.95354 4.60726 3.73543L1.98462 1.09892Z" fill="#777474"/>
</svg>
