<svg width="8" height="7" viewBox="0 0 8 7" fill="none" xmlns="http://www.w3.org/2000/svg">
<path fill-rule="evenodd" clip-rule="evenodd" d="M6.90909 0.7H1.09091C0.890078 0.7 0.727273 0.8567 0.727273 1.05V5.95C0.727273 6.1433 0.890078 6.3 1.09091 6.3H6.90909C7.10992 6.3 7.27273 6.1433 7.27273 5.95V1.05C7.27273 0.8567 7.10992 0.7 6.90909 0.7ZM1.09091 0C0.488417 0 0 0.470101 0 1.05V5.95C0 6.5299 0.488417 7 1.09091 7H6.90909C7.51158 7 8 6.5299 8 5.95V1.05C8 0.470101 7.51158 0 6.90909 0H1.09091ZM1.81818 1.75H2.54545V2.45H1.81818V1.75ZM3.63636 1.75C3.43553 1.75 3.27273 1.9067 3.27273 2.1C3.27273 2.2933 3.43553 2.45 3.63636 2.45H5.81818C6.01901 2.45 6.18182 2.2933 6.18182 2.1C6.18182 1.9067 6.01901 1.75 5.81818 1.75H3.63636ZM2.54545 3.15H1.81818V3.85H2.54545V3.15ZM3.27273 3.5C3.27273 3.3067 3.43553 3.15 3.63636 3.15H5.81818C6.01901 3.15 6.18182 3.3067 6.18182 3.5C6.18182 3.6933 6.01901 3.85 5.81818 3.85H3.63636C3.43553 3.85 3.27273 3.6933 3.27273 3.5ZM2.54545 4.55H1.81818V5.25H2.54545V4.55ZM3.27273 4.9C3.27273 4.7067 3.43553 4.55 3.63636 4.55H5.81818C6.01901 4.55 6.18182 4.7067 6.18182 4.9C6.18182 5.0933 6.01901 5.25 5.81818 5.25H3.63636C3.43553 5.25 3.27273 5.0933 3.27273 4.9Z" fill="#777474"/>
</svg>
