<svg width="8" height="9" viewBox="0 0 8 9" fill="none" xmlns="http://www.w3.org/2000/svg">
<path d="M1.77778 7.2H6.22222V6.3H1.77778V7.2Z" fill="#777474"/>
<path d="M6.22222 5.4H1.77778V4.5H6.22222V5.4Z" fill="#777474"/>
<path d="M1.77778 3.6H3.55556V2.7H1.77778V3.6Z" fill="#777474"/>
<path fill-rule="evenodd" clip-rule="evenodd" d="M1.33333 0C0.596954 0 0 0.604415 0 1.35V7.65C0 8.39558 0.596954 9 1.33333 9H6.66667C7.40305 9 8 8.39558 8 7.65V3.15C8 1.4103 6.60711 0 4.88889 0H1.33333ZM1.33333 0.9H4.44444V3.15H7.11111V7.65C7.11111 7.89853 6.91213 8.1 6.66667 8.1H1.33333C1.08787 8.1 0.888889 7.89853 0.888889 7.65V1.35C0.888889 1.10147 1.08787 0.9 1.33333 0.9ZM5.33333 0.945008C6.04948 1.0922 6.64057 1.58807 6.9262 2.25H5.33333V0.945008Z" fill="#777474"/>
</svg>
